<svg width="189" height="50" viewBox="0 0 189 50" fill="none" xmlns="http://www.w3.org/2000/svg">
<path d="M40.2969 32.3554V17.1631H43.1661V23.4347H48.8156V17.1631H51.6849V32.3554H48.8156V26.0405H43.1661V32.3554H40.2969Z" fill="#3E4753"/>
<path d="M54.5508 32.3554V17.1631H64.3308V19.7665H57.42V23.3915H63.7218V25.9948H57.42V29.7496H64.4608V32.353H54.5508V32.3554Z" fill="#3E4753"/>
<path d="M66.5898 32.3554V17.1631H69.4591V29.752H76.4132V32.3554H66.5898Z" fill="#3E4753"/>
<path d="M78.3711 32.3554V17.1631H84.6296C85.5852 17.1631 86.4301 17.3554 87.1618 17.7376C87.8936 18.1222 88.4665 18.6607 88.8781 19.3554C89.2921 20.0501 89.4967 20.8746 89.4967 21.829V22.1318C89.4967 23.0717 89.2825 23.8939 88.8564 24.5958C88.428 25.2977 87.8503 25.841 87.1185 26.2232C86.3867 26.6078 85.5563 26.7977 84.6296 26.7977H81.2404V32.353H78.3711V32.3554ZM81.238 24.1943H84.3455C85.0267 24.1943 85.578 24.0068 85.9968 23.6294C86.418 23.252 86.6274 22.74 86.6274 22.0886V21.8722C86.6274 21.2208 86.418 20.7088 85.9968 20.3314C85.5755 19.9564 85.0267 19.7665 84.3455 19.7665H81.238V24.1943Z" fill="#3E4753"/>
<path d="M91.4985 32.3554V17.1631H96.823L99.4516 30.4011H99.8439L102.472 17.1631H107.797V32.3554H105.014V19.2689H104.622L102.015 32.3554H97.278L94.6711 19.2689H94.2787V32.3554H91.4961H91.4985Z" fill="#3E4753"/>
<path d="M114.493 32.3554V27.1246L109.32 17.1631H112.515L115.73 23.6751H116.123L119.339 17.1631H122.533L117.36 27.1246V32.3554H114.491H114.493Z" fill="#3E4753"/>
<path d="M123.703 32.3554V17.1631H133.483V19.7665H126.572V23.3915H132.874V25.9948H126.572V29.7496H133.613V32.353H123.703V32.3554Z" fill="#3E4753"/>
<path d="M138.79 32.3554L134.922 17.1631H137.878L141.094 30.5116H141.397L144.613 17.1631H147.569L143.701 32.3554H138.79Z" fill="#3E4753"/>
<path d="M148.957 32.3554V17.1631H158.737V19.7665H151.826V23.3915H158.128V25.9948H151.826V29.7496H158.867V32.353H148.957V32.3554Z" fill="#3E4753"/>
<path d="M161.215 32.3554V17.1631H166.669L169.69 30.4011H170.083V17.1631H172.909V32.3554H167.454L164.433 19.1174H164.041V32.3554H161.215Z" fill="#3E4753"/>
<path d="M179.078 32.3554V19.7665H174.645V17.1631H186.379V19.7665H181.945V32.3554H179.076H179.078Z" fill="#3E4753"/>
<path d="M25.0701 26.9661C23.5797 26.3449 22.0123 25.5638 20.4264 24.5766C19.2285 23.8294 18.0213 22.9683 16.8296 21.9688C15.3453 20.7264 13.9842 19.361 12.7617 17.8849V10C14.4677 13.3397 16.7773 16.2458 19.6288 18.6353C21.4395 20.1514 23.2933 21.3046 25.0701 22.1841C27.6014 23.4388 29.9694 24.1338 31.814 24.5213C31.8202 24.5213 31.8294 24.5244 31.8356 24.5244L31.8263 24.5736L31.814 24.6259C29.9694 25.0133 27.6014 25.7083 25.0701 26.963V26.9661Z" fill="url(#paint0_linear_530_3868)"/>
<path d="M12.7695 39.1536V31.2687C13.9951 29.7926 15.3532 28.4272 16.8374 27.1848C18.0292 26.1884 19.2363 25.3242 20.4342 24.58C22.0201 23.5929 23.5875 22.8087 25.0779 22.1875C27.6092 23.4422 29.9772 24.1372 31.8218 24.5247L31.8341 24.58L31.8434 24.6292C31.8434 24.6292 31.828 24.6323 31.8218 24.6323C29.9772 25.0198 27.6092 25.7148 25.0779 26.9695C23.3042 27.849 21.4473 29.0022 19.6366 30.5214C16.7851 32.9109 14.4755 35.8139 12.7695 39.1567V39.1536Z" fill="url(#paint1_linear_530_3868)"/>
<path d="M12.219 20.0312C11.8156 20.634 11.3475 21.249 10.8055 21.8456C9.80165 22.9466 8.78237 23.7246 7.85547 24.2751C8.78237 24.8255 9.80165 25.6036 10.8055 26.7045C11.3475 27.3011 11.8156 27.9162 12.219 28.5189C12.6224 27.9162 13.0905 27.3011 13.6324 26.7045C14.6363 25.6036 15.6556 24.8255 16.5825 24.2751C15.6556 23.7246 14.6363 22.9466 13.6324 21.8456C13.0905 21.249 12.6224 20.634 12.219 20.0312Z" fill="url(#paint2_linear_530_3868)"/>
<defs>
<linearGradient id="paint0_linear_530_3868" x1="12.7648" y1="18.4846" x2="31.8386" y2="18.4846" gradientUnits="userSpaceOnUse">
<stop stop-color="#26BF73"/>
<stop offset="0.16" stop-color="#25BB78"/>
<stop offset="0.36" stop-color="#24B188"/>
<stop offset="0.57" stop-color="#21A0A1"/>
<stop offset="0.81" stop-color="#1E89C5"/>
<stop offset="1" stop-color="#1B73E8"/>
</linearGradient>
<linearGradient id="paint1_linear_530_3868" x1="-38.3147" y1="30.669" x2="-38.0068" y2="30.669" gradientUnits="userSpaceOnUse">
<stop stop-color="#26BF73"/>
<stop offset="0.16" stop-color="#25BB78"/>
<stop offset="0.36" stop-color="#24B188"/>
<stop offset="0.57" stop-color="#21A0A1"/>
<stop offset="0.81" stop-color="#1E89C5"/>
<stop offset="1" stop-color="#1B73E8"/>
</linearGradient>
<linearGradient id="paint2_linear_530_3868" x1="7.85547" y1="24.2751" x2="16.5825" y2="24.2751" gradientUnits="userSpaceOnUse">
<stop stop-color="#26BF73"/>
<stop offset="0.16" stop-color="#25BB78"/>
<stop offset="0.36" stop-color="#24B188"/>
<stop offset="0.57" stop-color="#21A0A1"/>
<stop offset="0.81" stop-color="#1E89C5"/>
<stop offset="1" stop-color="#1B73E8"/>
</linearGradient>
</defs>
</svg>
